<mxfile host="app.diagrams.net" modified="2023-05-02T03:18:56.763Z" agent="Mozilla/5.0 (Windows NT 10.0; Win64; x64; rv:109.0) Gecko/20100101 Firefox/112.0" etag="Y9gKVk7rt4bZxrUS6t4L" version="21.2.3" type="device">
  <diagram name="Seite-1" id="AGwHMloo7_ztXoY5SCVQ">
    <mxGraphModel dx="988" dy="530" grid="1" gridSize="10" guides="1" tooltips="1" connect="1" arrows="1" fold="1" page="1" pageScale="1" pageWidth="827" pageHeight="1169" math="0" shadow="0">
      <root>
        <mxCell id="0" />
        <mxCell id="1" parent="0" />
        <mxCell id="naeAhuZ_SOnjCjsH0O3v-9" style="edgeStyle=orthogonalEdgeStyle;rounded=0;orthogonalLoop=1;jettySize=auto;html=1;entryX=0;entryY=0.5;entryDx=0;entryDy=0;startArrow=classic;startFill=1;" edge="1" parent="1" source="naeAhuZ_SOnjCjsH0O3v-1" target="naeAhuZ_SOnjCjsH0O3v-3">
          <mxGeometry relative="1" as="geometry" />
        </mxCell>
        <mxCell id="naeAhuZ_SOnjCjsH0O3v-10" value="Anfrage + Auth. Cookie" style="edgeLabel;html=1;align=center;verticalAlign=middle;resizable=0;points=[];" vertex="1" connectable="0" parent="naeAhuZ_SOnjCjsH0O3v-9">
          <mxGeometry x="-0.8484" y="2" relative="1" as="geometry">
            <mxPoint x="156" y="12" as="offset" />
          </mxGeometry>
        </mxCell>
        <mxCell id="naeAhuZ_SOnjCjsH0O3v-1" value="Client" style="swimlane;whiteSpace=wrap;html=1;" vertex="1" parent="1">
          <mxGeometry x="30" y="20" width="200" height="200" as="geometry" />
        </mxCell>
        <mxCell id="naeAhuZ_SOnjCjsH0O3v-2" value="Auth. Cookie" style="shape=datastore;whiteSpace=wrap;html=1;" vertex="1" parent="naeAhuZ_SOnjCjsH0O3v-1">
          <mxGeometry x="50" y="47.5" width="100" height="105" as="geometry" />
        </mxCell>
        <mxCell id="naeAhuZ_SOnjCjsH0O3v-3" value="Server" style="swimlane;whiteSpace=wrap;html=1;" vertex="1" parent="1">
          <mxGeometry x="470" y="20" width="200" height="200" as="geometry" />
        </mxCell>
        <mxCell id="naeAhuZ_SOnjCjsH0O3v-4" value="PostgreSQL Datenbank mit EntitÃ¤ten" style="shape=datastore;whiteSpace=wrap;html=1;" vertex="1" parent="naeAhuZ_SOnjCjsH0O3v-3">
          <mxGeometry x="50" y="47.5" width="100" height="105" as="geometry" />
        </mxCell>
        <mxCell id="naeAhuZ_SOnjCjsH0O3v-7" style="edgeStyle=orthogonalEdgeStyle;rounded=0;orthogonalLoop=1;jettySize=auto;html=1;entryX=0.5;entryY=1;entryDx=0;entryDy=0;startArrow=classic;startFill=1;" edge="1" parent="1" source="naeAhuZ_SOnjCjsH0O3v-5" target="naeAhuZ_SOnjCjsH0O3v-1">
          <mxGeometry relative="1" as="geometry" />
        </mxCell>
        <mxCell id="naeAhuZ_SOnjCjsH0O3v-13" value="Auth. Cookie" style="edgeLabel;html=1;align=center;verticalAlign=middle;resizable=0;points=[];" vertex="1" connectable="0" parent="naeAhuZ_SOnjCjsH0O3v-7">
          <mxGeometry x="0.8644" relative="1" as="geometry">
            <mxPoint as="offset" />
          </mxGeometry>
        </mxCell>
        <mxCell id="naeAhuZ_SOnjCjsH0O3v-16" value="Logindaten" style="edgeLabel;html=1;align=center;verticalAlign=middle;resizable=0;points=[];" vertex="1" connectable="0" parent="naeAhuZ_SOnjCjsH0O3v-7">
          <mxGeometry x="-0.5702" y="-2" relative="1" as="geometry">
            <mxPoint x="18" y="12" as="offset" />
          </mxGeometry>
        </mxCell>
        <mxCell id="naeAhuZ_SOnjCjsH0O3v-8" style="edgeStyle=orthogonalEdgeStyle;rounded=0;orthogonalLoop=1;jettySize=auto;html=1;startArrow=classic;startFill=1;" edge="1" parent="1" source="naeAhuZ_SOnjCjsH0O3v-5">
          <mxGeometry relative="1" as="geometry">
            <mxPoint x="570" y="220" as="targetPoint" />
          </mxGeometry>
        </mxCell>
        <mxCell id="naeAhuZ_SOnjCjsH0O3v-14" value="Session-Registrierung, Benutzerdaten" style="edgeLabel;html=1;align=center;verticalAlign=middle;resizable=0;points=[];" vertex="1" connectable="0" parent="naeAhuZ_SOnjCjsH0O3v-8">
          <mxGeometry x="0.8703" y="-1" relative="1" as="geometry">
            <mxPoint as="offset" />
          </mxGeometry>
        </mxCell>
        <mxCell id="naeAhuZ_SOnjCjsH0O3v-17" value="Anfrage der Benutzerdaten" style="edgeLabel;html=1;align=center;verticalAlign=middle;resizable=0;points=[];" vertex="1" connectable="0" parent="naeAhuZ_SOnjCjsH0O3v-8">
          <mxGeometry x="-0.7043" y="2" relative="1" as="geometry">
            <mxPoint x="38" y="12" as="offset" />
          </mxGeometry>
        </mxCell>
        <mxCell id="naeAhuZ_SOnjCjsH0O3v-5" value="Identity Provider" style="swimlane;whiteSpace=wrap;html=1;" vertex="1" parent="1">
          <mxGeometry x="250" y="232" width="200" height="200" as="geometry" />
        </mxCell>
        <mxCell id="naeAhuZ_SOnjCjsH0O3v-6" value="Interne Datenbank mit Nutzerdaten, Sessions, etc." style="shape=datastore;whiteSpace=wrap;html=1;" vertex="1" parent="naeAhuZ_SOnjCjsH0O3v-5">
          <mxGeometry x="50" y="47.5" width="100" height="105" as="geometry" />
        </mxCell>
        <mxCell id="naeAhuZ_SOnjCjsH0O3v-11" value="Ergebnis der Abfrage" style="edgeLabel;html=1;align=center;verticalAlign=middle;resizable=0;points=[];" vertex="1" connectable="0" parent="1">
          <mxGeometry x="291.99523809523805" y="109" as="geometry" />
        </mxCell>
      </root>
    </mxGraphModel>
  </diagram>
</mxfile>
